<svg width="46" height="47" viewBox="0 0 46 47" fill="none" xmlns="http://www.w3.org/2000/svg">
<path d="M0.000212765 23.0139C-0.00408079 24.0207 0.0566123 25.0267 0.181912 26.0256C0.749028 30.4674 2.6025 34.6459 5.51369 38.0456C8.42489 41.4453 12.2665 43.9176 16.5646 45.1576C18.5989 45.7415 20.7037 46.0425 22.8199 46.0521C24.4288 46.0597 26.0341 45.8988 27.6096 45.5721C30.6124 44.9391 33.4583 43.7107 35.9793 41.9592C38.5004 40.2077 40.6456 37.9686 42.2885 35.3739C42.5 35.0399 42.7025 34.697 42.8991 34.3541C43.8085 32.7377 44.5177 31.0164 45.011 29.2282C45.1778 28.6318 45.3089 28.0056 45.4399 27.3794C45.571 26.7532 45.6514 26.1181 45.7169 25.471C45.7944 24.7255 45.8341 23.9711 45.8361 23.2077C45.8413 22.2881 45.7906 21.3689 45.6842 20.4554C45.6127 19.8233 45.5134 19.2 45.3863 18.5858C44.4937 14.1543 42.3142 10.0853 39.1211 6.88875C35.928 3.6922 31.8634 1.51036 27.4368 0.616768C26.8232 0.491528 26.1977 0.393125 25.5662 0.318577C24.7179 0.219496 23.8646 0.168722 23.0105 0.1665C22.1918 0.161096 21.3734 0.200915 20.559 0.285776C19.9156 0.348396 19.2782 0.443817 18.6527 0.563094C18.0272 0.68237 17.4106 0.82252 16.8029 0.989507C15.0161 1.48305 13.2965 2.19408 11.6826 3.10666C11.3371 3.30049 10.9945 3.50326 10.6609 3.70305C6.98663 6.03865 4.04762 9.36749 2.18358 13.3048C1.41474 14.9297 0.841779 16.6404 0.476801 18.4009C0.163929 19.9187 0.00426351 21.4641 0.000212765 23.0139Z" fill="#167287"/>
<path opacity="0.1" d="M0.000212765 23.0139C-0.00408079 24.0207 0.0566123 25.0267 0.181912 26.0256C0.749028 30.4674 2.6025 34.6459 5.51369 38.0456C8.42489 41.4453 12.2665 43.9176 16.5646 45.1576C18.5989 45.7415 20.7037 46.0425 22.8199 46.0521C24.4288 46.0597 26.0341 45.8988 27.6096 45.5721C30.6124 44.9391 33.4583 43.7107 35.9793 41.9592C38.5004 40.2077 40.6456 37.9686 42.2885 35.3739C42.5 35.0399 42.7025 34.697 42.8991 34.3541C43.8085 32.7377 44.5177 31.0164 45.011 29.2282C45.1778 28.6318 45.3089 28.0056 45.4399 27.3794C45.571 26.7532 45.6514 26.1181 45.7169 25.471C45.7944 24.7255 45.8341 23.9711 45.8361 23.2077C45.8413 22.2881 45.7906 21.3689 45.6842 20.4554C45.6127 19.8233 45.5134 19.2 45.3863 18.5858C44.4937 14.1543 42.3142 10.0853 39.1211 6.88875C35.928 3.6922 31.8634 1.51036 27.4368 0.616768C26.8232 0.491528 26.1977 0.393125 25.5662 0.318577C24.7179 0.219496 23.8646 0.168722 23.0105 0.1665C22.1918 0.161096 21.3734 0.200915 20.559 0.285776C19.9156 0.348396 19.2782 0.443817 18.6527 0.563094C18.0272 0.68237 17.4106 0.82252 16.8029 0.989507C15.0161 1.48305 13.2965 2.19408 11.6826 3.10666C11.3371 3.30049 10.9945 3.50326 10.6609 3.70305C6.98663 6.03865 4.04762 9.36749 2.18358 13.3048C1.41474 14.9297 0.841779 16.6404 0.476801 18.4009C0.163929 19.9187 0.00426351 21.4641 0.000212765 23.0139Z" fill="white"/>
<path opacity="0.05" d="M44.9396 16.752C45.1124 17.3483 45.2643 17.9686 45.3894 18.5948C45.5145 19.221 45.6128 19.8323 45.6873 20.4644C45.7936 21.3779 45.8444 22.2971 45.8392 23.2167C45.8392 23.9801 45.7995 24.7345 45.72 25.48C45.6545 26.1281 45.5622 26.7642 45.443 27.3884C45.3239 28.0146 45.1809 28.6289 45.0141 29.2372C44.5185 31.0194 43.8083 32.7346 42.8992 34.3452C42.7026 34.6881 42.5001 35.0311 42.2886 35.365C40.2166 38.6538 37.3419 41.3599 33.9357 43.2282C30.5294 45.0965 26.7039 46.0653 22.82 46.0433C21.9838 46.0379 21.1485 45.9871 20.3179 45.8912L44.9396 16.752Z" fill="#010E11"/>
<path opacity="0.05" d="M44.5852 30.5996C44.1378 31.8966 43.5735 33.1502 42.8992 34.3449C42.7026 34.6878 42.5001 35.0307 42.2886 35.3647C40.2067 38.6524 37.3258 41.3579 33.9155 43.228L44.5852 30.5996Z" fill="#010E11"/>
<path opacity="0.15" d="M41.8058 10.1113C42.5436 11.1828 43.1874 12.3162 43.73 13.4988L16.9219 45.2531L16.5585 45.1547C15.4359 44.8255 14.3405 44.4098 13.282 43.9113L41.8058 10.1113Z" fill="white"/>
<path opacity="0.15" d="M33.0398 2.51904C34.2417 3.11428 35.3898 3.81268 36.4712 4.60638L6.95551 39.5603C5.99377 38.624 5.11569 37.6053 4.3313 36.5158L33.0398 2.51904Z" fill="white"/>
<path opacity="0.15" d="M29.6916 1.18604C30.4005 1.4067 31.0956 1.65916 31.7767 1.94344L3.55372 35.3647C3.16054 34.7415 2.7882 34.1034 2.45459 33.4414L29.6916 1.18604Z" fill="white"/>
<path opacity="0.15" d="M0.0656738 21.4515C0.0954606 21.0281 0.14014 20.6076 0.190778 20.1931C0.20865 20.053 0.223543 19.9128 0.244394 19.7757C0.265245 19.6385 0.286096 19.4775 0.309925 19.3493C0.363541 19.0511 0.417158 18.7231 0.47971 18.4129C1.38513 14.0722 3.53026 10.088 6.65451 6.94451C7.86615 5.7214 9.21099 4.63816 10.6638 3.7151C10.9974 3.50339 11.34 3.30062 11.6855 3.11872C13.2994 2.20613 15.019 1.49511 16.8058 1.00156C17.0322 0.938945 17.2586 0.88527 17.488 0.828613L0.0656738 21.4515Z" fill="white"/>
<path d="M5.84131 23.1095C5.8407 27.4454 7.48616 31.6195 10.4444 34.7864C13.4027 37.9533 17.4527 39.8763 21.7742 40.166C22.1496 40.1899 22.5368 40.2048 22.921 40.2048C27.4114 40.1454 31.6978 38.318 34.8522 35.1182C38.0066 31.9184 39.7752 27.6036 39.7752 23.108C39.7752 18.6124 38.0066 14.2976 34.8522 11.0978C31.6978 7.89799 27.4114 6.0706 22.921 6.01123C22.5368 6.01123 22.1496 6.01123 21.7742 6.04999C17.4527 6.34113 13.4031 8.26501 10.445 11.4323C7.48695 14.5995 5.84135 18.7735 5.84131 23.1095Z" fill="#167287"/>
<path opacity="0.4" d="M5.84131 23.1095C5.8407 27.4454 7.48616 31.6195 10.4444 34.7864C13.4027 37.9533 17.4527 39.8763 21.7742 40.166C22.1496 40.1899 22.5368 40.2048 22.921 40.2048C27.4114 40.1454 31.6978 38.318 34.8522 35.1182C38.0066 31.9184 39.7752 27.6036 39.7752 23.108C39.7752 18.6124 38.0066 14.2976 34.8522 11.0978C31.6978 7.89799 27.4114 6.0706 22.921 6.01123C22.5368 6.01123 22.1496 6.01123 21.7742 6.04999C17.4527 6.34113 13.4031 8.26501 10.445 11.4323C7.48695 14.5995 5.84135 18.7735 5.84131 23.1095Z" fill="#010E11"/>
<path d="M6.60083 23.1093C6.60083 23.4075 6.60083 23.7057 6.62466 23.98C6.83686 27.9653 8.49935 31.7348 11.2982 34.5768C14.097 37.4187 17.8384 39.1364 21.8159 39.4055L22.0393 39.4204C22.3372 39.4204 22.6172 39.4442 22.9091 39.4442C26.9991 39.4521 30.9426 37.9204 33.957 35.1529C36.9714 32.3855 38.8363 28.5847 39.1816 24.5049C39.2233 24.0427 39.2412 23.5775 39.2412 23.1034C39.2412 22.6292 39.2263 22.2416 39.1935 21.8182C39.127 20.9403 38.9875 20.0696 38.7765 19.2149C38.0626 16.3148 36.5693 13.6657 34.4585 11.5547C32.3477 9.44369 29.6999 7.9514 26.8022 7.23959C25.9485 7.02839 25.0787 6.88875 24.2018 6.82212C23.7789 6.78932 23.3499 6.77441 22.918 6.77441C22.5516 6.77441 22.1853 6.77441 21.8248 6.8102C21.7236 6.8102 21.6223 6.8102 21.527 6.83405C19.1496 7.03304 16.8457 7.75603 14.7803 8.95121C12.2942 10.3825 10.2295 12.4454 8.7949 14.9313C7.36027 17.4173 6.6065 20.2383 6.60977 23.1093H6.60083Z" fill="#167287"/>
<path opacity="0.5" d="M6.60083 23.1093C6.60083 23.4075 6.60083 23.7057 6.62466 23.98C6.83686 27.9653 8.49935 31.7348 11.2982 34.5768C14.097 37.4187 17.8384 39.1364 21.8159 39.4055L22.0393 39.4204C22.3372 39.4204 22.6172 39.4442 22.9091 39.4442C26.9991 39.4521 30.9426 37.9204 33.957 35.1529C36.9714 32.3855 38.8363 28.5847 39.1816 24.5049C39.2233 24.0427 39.2412 23.5775 39.2412 23.1034C39.2412 22.6292 39.2263 22.2416 39.1935 21.8182C39.127 20.9403 38.9875 20.0696 38.7765 19.2149C38.0626 16.3148 36.5693 13.6657 34.4585 11.5547C32.3477 9.44369 29.6999 7.9514 26.8022 7.23959C25.9485 7.02839 25.0787 6.88875 24.2018 6.82212C23.7789 6.78932 23.3499 6.77441 22.918 6.77441C22.5516 6.77441 22.1853 6.77441 21.8248 6.8102C21.7236 6.8102 21.6223 6.8102 21.527 6.83405C19.1496 7.03304 16.8457 7.75603 14.7803 8.95121C12.2942 10.3825 10.2295 12.4454 8.7949 14.9313C7.36027 17.4173 6.6065 20.2383 6.60977 23.1093H6.60083Z" fill="#010E11"/>
<path d="M34.4158 34.7C37.1688 31.9799 38.8592 28.3637 39.1816 24.5049C39.2233 24.0427 39.2442 23.5775 39.2442 23.1034C39.2442 22.6292 39.2263 22.2416 39.1936 21.8182C39.127 20.9403 38.9875 20.0696 38.7765 19.2149C38.0626 16.3148 36.5693 13.6657 34.4585 11.5547C32.3477 9.44369 29.6999 7.9514 26.8023 7.23959C25.9486 7.02839 25.0788 6.88875 24.2019 6.82212C23.7789 6.78932 23.35 6.77441 22.9181 6.77441C22.5517 6.77441 22.1853 6.77441 21.8249 6.8102C21.7236 6.8102 21.6223 6.8102 21.527 6.83405C19.1497 7.03304 16.8457 7.75603 14.7803 8.95121C14.0644 9.37095 13.3813 9.84445 12.737 10.3676C11.2119 11.881 10.0021 13.6825 9.17788 15.6676C8.35363 17.6526 7.93129 19.7817 7.93533 21.9315C7.93533 22.2297 7.93533 22.5129 7.96214 22.8022C8.17307 26.7878 9.83515 30.5581 12.6342 33.4003C15.4333 36.2425 19.1754 37.9598 23.1534 38.2276H23.3738C23.6717 38.2425 23.9547 38.2515 24.2466 38.2515C27.9439 38.2552 31.5313 36.9925 34.4128 34.6732L34.4158 34.7Z" fill="#167287"/>
<path opacity="0.25" d="M34.4158 34.7C37.1688 31.9799 38.8592 28.3637 39.1816 24.5049C39.2233 24.0427 39.2442 23.5775 39.2442 23.1034C39.2442 22.6292 39.2263 22.2416 39.1936 21.8182C39.127 20.9403 38.9875 20.0696 38.7765 19.2149C38.0626 16.3148 36.5693 13.6657 34.4585 11.5547C32.3477 9.44369 29.6999 7.9514 26.8023 7.23959C25.9486 7.02839 25.0788 6.88875 24.2019 6.82212C23.7789 6.78932 23.35 6.77441 22.9181 6.77441C22.5517 6.77441 22.1853 6.77441 21.8249 6.8102C21.7236 6.8102 21.6223 6.8102 21.527 6.83405C19.1497 7.03304 16.8457 7.75603 14.7803 8.95121C14.0644 9.37095 13.3813 9.84445 12.737 10.3676C11.2119 11.881 10.0021 13.6825 9.17788 15.6676C8.35363 17.6526 7.93129 19.7817 7.93533 21.9315C7.93533 22.2297 7.93533 22.5129 7.96214 22.8022C8.17307 26.7878 9.83515 30.5581 12.6342 33.4003C15.4333 36.2425 19.1754 37.9598 23.1534 38.2276H23.3738C23.6717 38.2425 23.9547 38.2515 24.2466 38.2515C27.9439 38.2552 31.5313 36.9925 34.4128 34.6732L34.4158 34.7Z" fill="#010E11"/>
<path d="M11.6855 3.10661C21.5479 -2.00737 29.5576 0.652499 34.9192 3.84314C42.6638 9.04658 47.5488 17.7627 44.8769 29.2818V29.258C43.857 33.0893 41.8499 36.5854 39.0566 39.3965C41.9408 36.5768 44.0377 33.0507 45.1391 29.1685V29.1894C47.6024 19.6473 44.5046 12.0702 39.3366 6.72367C33.7992 1.61268 24.4164 -3.4357 11.6855 3.10661Z" fill="#F5F5F5"/>
<path d="M20.4638 11.0355L20.4459 13.2361C20.4459 13.2361 18.1851 12.8366 15.6085 14.8732C15.5013 14.9597 15.406 15.0432 15.3106 15.1267C14.7767 15.5895 14.3522 16.1654 14.0678 16.8126C13.7835 17.4598 13.6464 18.1622 13.6664 18.869C13.6452 19.5821 13.7841 20.2909 14.0728 20.9432C14.3615 21.5955 14.7926 22.1747 15.3345 22.6381C15.4209 22.7126 15.5221 22.7812 15.6085 22.8558L15.6353 22.8826L15.9332 23.0973C16.0232 23.1611 16.1166 23.2199 16.2132 23.2732C16.2507 23.2981 16.2895 23.321 16.3293 23.3418C16.4001 23.3908 16.4748 23.4336 16.5527 23.4701C17.2022 23.817 17.8797 24.1083 18.5782 24.3408C18.9208 24.46 19.2753 24.5674 19.6297 24.6658C20.1421 24.8119 20.6544 24.9461 21.1429 25.0713L21.7386 25.2175C23.1326 25.5544 24.1484 25.8287 24.7918 26.1925C25.1527 26.3565 25.4432 26.6441 25.6109 27.0036C25.6865 27.1933 25.7249 27.3958 25.7241 27.6C25.7241 28.4558 25.0122 29.1476 23.076 29.091C21.0148 29.0134 19.8561 28.1964 19.5791 26.938L13.9196 27.9996C14.7745 30.5938 17.077 32.2876 20.6901 32.9078V35.7436L25.3488 35.9165V33.0807C27.3058 32.9167 28.9232 32.383 30.0253 31.4854L30.0551 31.4616C30.6273 30.9916 31.0831 30.3955 31.3869 29.72C31.6908 29.0444 31.8344 28.3076 31.8066 27.5672C31.8244 23.8309 28.8606 22.498 25.6883 21.6272C22.7246 20.8311 20.0884 20.6343 20.0944 18.8183C20.0944 17.6851 21.131 17.214 22.6561 17.2677C25.0896 17.3542 26.0369 18.7914 26.2305 19.8351L32.1878 18.7527C32.0549 18.2176 31.8547 17.7016 31.5921 17.217C31.1417 16.4076 30.5157 15.7096 29.7602 15.1744C28.4377 14.2202 26.7577 13.6834 25.0718 13.421V10.5763L20.4608 10.3198L20.4638 11.0355Z" fill="#167287"/>
<path opacity="0.1" d="M20.4638 11.0355L20.4459 13.2361C20.4459 13.2361 18.1851 12.8366 15.6085 14.8732C15.5013 14.9597 15.406 15.0432 15.3106 15.1267C14.7767 15.5895 14.3522 16.1654 14.0678 16.8126C13.7835 17.4598 13.6464 18.1622 13.6664 18.869C13.6452 19.5821 13.7841 20.2909 14.0728 20.9432C14.3615 21.5955 14.7926 22.1747 15.3345 22.6381C15.4209 22.7126 15.5221 22.7812 15.6085 22.8558L15.6353 22.8826L15.9332 23.0973C16.0232 23.1611 16.1166 23.2199 16.2132 23.2732C16.2507 23.2981 16.2895 23.321 16.3293 23.3418C16.4001 23.3908 16.4748 23.4336 16.5527 23.4701C17.2022 23.817 17.8797 24.1083 18.5782 24.3408C18.9208 24.46 19.2753 24.5674 19.6297 24.6658C20.1421 24.8119 20.6544 24.9461 21.1429 25.0713L21.7386 25.2175C23.1326 25.5544 24.1484 25.8287 24.7918 26.1925C25.1527 26.3565 25.4432 26.6441 25.6109 27.0036C25.6865 27.1933 25.7249 27.3958 25.7241 27.6C25.7241 28.4558 25.0122 29.1476 23.076 29.091C21.0148 29.0134 19.8561 28.1964 19.5791 26.938L13.9196 27.9996C14.7745 30.5938 17.077 32.2876 20.6901 32.9078V35.7436L25.3488 35.9165V33.0807C27.3058 32.9167 28.9232 32.383 30.0253 31.4854L30.0551 31.4616C30.6273 30.9916 31.0831 30.3955 31.3869 29.72C31.6908 29.0444 31.8344 28.3076 31.8066 27.5672C31.8244 23.8309 28.8606 22.498 25.6883 21.6272C22.7246 20.8311 20.0884 20.6343 20.0944 18.8183C20.0944 17.6851 21.131 17.214 22.6561 17.2677C25.0896 17.3542 26.0369 18.7914 26.2305 19.8351L32.1878 18.7527C32.0549 18.2176 31.8547 17.7016 31.5921 17.217C31.1417 16.4076 30.5157 15.7096 29.7602 15.1744C28.4377 14.2202 26.7577 13.6834 25.0718 13.421V10.5763L20.4608 10.3198L20.4638 11.0355Z" fill="white"/>
<path d="M31.8066 27.5585C31.8006 26.2995 31.3209 25.0889 30.4632 24.1681C29.6351 23.2735 28.4556 22.6771 27.145 22.2119C25.8344 21.7468 24.4016 21.4307 22.9957 21.0639C22.3172 20.9013 21.6604 20.6591 21.0387 20.3423C20.7517 20.2035 20.5103 19.9855 20.343 19.714C20.1757 19.4424 20.0894 19.1286 20.0944 18.8096C20.1153 19.4924 20.5591 19.9516 21.1459 20.2409C21.7844 20.5325 22.454 20.7505 23.1416 20.8909C24.5628 21.1797 25.9669 21.5471 27.3475 21.9913C28.6522 22.4714 29.8556 23.0886 30.6568 24.0249C31.0626 24.4881 31.3724 25.0273 31.5683 25.6113C31.7494 26.2438 31.8299 26.9009 31.8066 27.5585Z" fill="white"/>
<path d="M20.4727 10.311L24.6398 10.8955L25.0688 13.4122L25.0836 10.5675L20.4727 10.311Z" fill="#FAFAFA"/>
<path d="M20.69 32.8989L21.0802 35.4097L25.3427 35.9077L20.687 35.7347L20.69 32.8989Z" fill="#FAFAFA"/>
<path opacity="0.15" d="M13.9197 27.9908C14.0746 28.4464 14.2815 28.8827 14.5363 29.2909L16.1626 27.5703L13.9197 27.9908Z" fill="white"/>
<path opacity="0.15" d="M31.8004 27.4358C31.8165 26.7481 31.6853 26.0649 31.4156 25.4323C31.1458 24.7996 30.7438 24.2321 30.2366 23.7681L20.6899 33.8887V35.7345L23.8682 35.8538L25.3575 34.2763V33.0836C25.7941 33.0468 26.2285 32.988 26.6592 32.9076L31.8004 27.4358Z" fill="white"/>
<path opacity="0.15" d="M13.6873 19.4355C13.7502 20.228 14.0137 20.9915 14.4528 21.654L24.9139 10.5553L22.1973 10.4062L20.4548 12.255V13.2361C20.153 13.2016 19.8482 13.2016 19.5463 13.2361L13.6873 19.4355Z" fill="white"/>
<path opacity="0.15" d="M15.6293 22.8884L15.9272 23.1031C16.0172 23.1669 16.1106 23.2256 16.2072 23.279C16.2447 23.3039 16.2835 23.3268 16.3233 23.3476C16.3941 23.3965 16.4688 23.4394 16.5467 23.4758C17.1962 23.8228 17.8737 24.114 18.5722 24.3465C18.7301 24.4002 18.8939 24.4449 19.0548 24.4956L22.513 20.8309C21.0714 20.4223 20.0854 19.9184 20.0884 18.8091C20.0914 17.6999 21.125 17.2049 22.6501 17.2585C23.5385 17.2551 24.4045 17.5385 25.1194 18.0666L28.527 14.4526C27.4293 13.9372 26.2622 13.5856 25.0628 13.4089V12.3384L15.3523 22.6528C15.4357 22.7244 15.531 22.793 15.6114 22.8615L15.6293 22.8884Z" fill="white"/>
</svg>
